<mxfile host="app.diagrams.net" modified="2022-08-11T13:32:34.317Z" agent="5.0 (Macintosh; Intel Mac OS X 10_15_7) AppleWebKit/537.36 (KHTML, like Gecko) Chrome/103.0.0.0 Safari/537.36" etag="wAOObq5a3P_iAIUi3bjE" version="20.2.3" type="github">
  <diagram name="Page-1" id="2cc2dc42-3aac-f2a9-1cec-7a8b7cbee084">
    <mxGraphModel dx="749" dy="1355" grid="1" gridSize="10" guides="1" tooltips="1" connect="1" arrows="1" fold="1" page="1" pageScale="1" pageWidth="1100" pageHeight="850" background="none" math="0" shadow="0">
      <root>
        <mxCell id="0" />
        <mxCell id="1" parent="0" />
        <mxCell id="OesEzoIPEQb2hPXuOrIZ-76" value="" style="strokeWidth=1;shadow=0;dashed=1;align=center;html=1;shape=mxgraph.mockup.containers.browserWindow;rSize=0;strokeColor=#bbb;mainText=,;recursiveResize=0;rounded=0;labelBackgroundColor=none;fontFamily=Verdana;fontSize=12;container=0;" vertex="1" parent="1">
          <mxGeometry y="-800" width="1057" height="1000" as="geometry" />
        </mxCell>
        <mxCell id="OesEzoIPEQb2hPXuOrIZ-77" value="&lt;span style=&quot;color: rgb(32, 33, 36); font-family: menlo, monospace; background-color: rgb(255, 255, 255); font-size: 13px;&quot;&gt;&lt;font style=&quot;font-size: 13px;&quot;&gt;Dashboard&lt;/font&gt;&lt;/span&gt;" style="text;html=1;points=[];align=left;verticalAlign=top;spacingTop=0;fontSize=13;fontFamily=Verdana;spacing=0;" vertex="1" parent="1">
          <mxGeometry x="49" y="-601" width="170" height="30" as="geometry" />
        </mxCell>
        <mxCell id="OesEzoIPEQb2hPXuOrIZ-78" value="&lt;font style=&quot;font-size: 13px;&quot;&gt;Wizard&lt;/font&gt;" style="text;html=1;points=[];align=left;verticalAlign=top;spacingTop=0;fontSize=13;fontFamily=Verdana;spacing=0;" vertex="1" parent="1">
          <mxGeometry x="49" y="-561" width="170" height="30" as="geometry" />
        </mxCell>
        <mxCell id="OesEzoIPEQb2hPXuOrIZ-79" value="&lt;font face=&quot;menlo, monospace&quot; color=&quot;#202124&quot; style=&quot;font-size: 13px;&quot;&gt;&lt;span style=&quot;font-size: 13px; background-color: rgb(255, 255, 255);&quot;&gt;Requirement&lt;/span&gt;&lt;/font&gt;" style="text;html=1;points=[];align=left;verticalAlign=top;spacingTop=0;fontSize=13;fontFamily=Verdana;spacing=0;" vertex="1" parent="1">
          <mxGeometry x="49" y="-426" width="90" height="30" as="geometry" />
        </mxCell>
        <mxCell id="OesEzoIPEQb2hPXuOrIZ-80" value="&lt;font style=&quot;font-size: 13px;&quot;&gt;Analysis&lt;/font&gt;" style="text;html=1;points=[];align=left;verticalAlign=top;spacingTop=0;fontSize=13;fontFamily=Verdana;spacing=0;" vertex="1" parent="1">
          <mxGeometry x="49" y="-324" width="100" height="30" as="geometry" />
        </mxCell>
        <mxCell id="OesEzoIPEQb2hPXuOrIZ-81" value="&lt;p style=&quot;margin: 0px; font-variant-numeric: normal; font-variant-east-asian: normal; font-stretch: normal; font-size: 11px; line-height: normal; font-family: &amp;quot;Helvetica Neue&amp;quot;; color: rgb(0, 0, 0);&quot; class=&quot;p1&quot;&gt;-등록관리&lt;/p&gt;&lt;p style=&quot;margin: 0px; font-variant-numeric: normal; font-variant-east-asian: normal; font-stretch: normal; font-size: 11px; line-height: normal; font-family: &amp;quot;Apple SD Gothic Neo&amp;quot;; color: rgb(0, 0, 0);&quot; class=&quot;p2&quot;&gt;-버전관리&lt;/p&gt;&lt;p style=&quot;margin: 0px; font-variant-numeric: normal; font-variant-east-asian: normal; font-stretch: normal; font-size: 11px; line-height: normal; font-family: &amp;quot;Apple SD Gothic Neo&amp;quot;; color: rgb(0, 0, 0);&quot; class=&quot;p2&quot;&gt;-JIRA관리&lt;/p&gt;&lt;p style=&quot;margin: 0px; font-variant-numeric: normal; font-variant-east-asian: normal; font-stretch: normal; font-size: 11px; line-height: normal; font-family: &amp;quot;Apple SD Gothic Neo&amp;quot;; color: rgb(0, 0, 0);&quot; class=&quot;p2&quot;&gt;-제품.버전.지라 연결&lt;/p&gt;" style="strokeWidth=1;shadow=0;dashed=0;align=center;html=1;shape=mxgraph.mockup.text.bulletedList;textColor=#666666;mainText=,,,,;textSize=17;bulletStyle=none;strokeColor=none;fillColor=none;align=left;verticalAlign=top;fontSize=11;fontColor=#666666;spacing=0;" vertex="1" parent="1">
          <mxGeometry x="49" y="-499" width="60" height="39" as="geometry" />
        </mxCell>
        <mxCell id="OesEzoIPEQb2hPXuOrIZ-82" value="" style="shape=table;html=1;whiteSpace=wrap;startSize=0;container=1;collapsible=0;childLayout=tableLayout;fontSize=11;fontColor=#bbb;strokeColor=#BBBBBB;strokeWidth=2;fillColor=#fff;" vertex="1" parent="1">
          <mxGeometry x="19" y="-420" width="22" height="15" as="geometry" />
        </mxCell>
        <mxCell id="OesEzoIPEQb2hPXuOrIZ-83" value="" style="shape=tableRow;horizontal=0;startSize=0;swimlaneHead=0;swimlaneBody=0;top=0;left=0;bottom=0;right=0;collapsible=0;dropTarget=0;fillColor=none;points=[[0,0.5],[1,0.5]];portConstraint=eastwest;fontSize=11;fontColor=#bbb;strokeColor=#BBBBBB;strokeWidth=2;" vertex="1" parent="OesEzoIPEQb2hPXuOrIZ-82">
          <mxGeometry width="22" height="9" as="geometry" />
        </mxCell>
        <mxCell id="OesEzoIPEQb2hPXuOrIZ-84" value="" style="shape=partialRectangle;html=1;whiteSpace=wrap;connectable=0;fillColor=none;top=0;left=0;bottom=0;right=0;overflow=hidden;fontSize=11;fontColor=#bbb;strokeColor=#BBBBBB;strokeWidth=2;" vertex="1" parent="OesEzoIPEQb2hPXuOrIZ-83">
          <mxGeometry width="11" height="9" as="geometry">
            <mxRectangle width="11" height="9" as="alternateBounds" />
          </mxGeometry>
        </mxCell>
        <mxCell id="OesEzoIPEQb2hPXuOrIZ-85" value="" style="shape=partialRectangle;html=1;whiteSpace=wrap;connectable=0;fillColor=none;top=0;left=0;bottom=0;right=0;overflow=hidden;fontSize=11;fontColor=#bbb;strokeColor=#BBBBBB;strokeWidth=2;" vertex="1" parent="OesEzoIPEQb2hPXuOrIZ-83">
          <mxGeometry x="11" height="9" as="geometry">
            <mxRectangle height="9" as="alternateBounds" />
          </mxGeometry>
        </mxCell>
        <mxCell id="OesEzoIPEQb2hPXuOrIZ-86" value="" style="shape=partialRectangle;html=1;whiteSpace=wrap;connectable=0;fillColor=none;top=0;left=0;bottom=0;right=0;overflow=hidden;fontSize=11;fontColor=#bbb;strokeColor=#BBBBBB;strokeWidth=2;" vertex="1" parent="OesEzoIPEQb2hPXuOrIZ-83">
          <mxGeometry x="11" width="11" height="9" as="geometry">
            <mxRectangle width="11" height="9" as="alternateBounds" />
          </mxGeometry>
        </mxCell>
        <mxCell id="OesEzoIPEQb2hPXuOrIZ-87" value="" style="shape=tableRow;horizontal=0;startSize=0;swimlaneHead=0;swimlaneBody=0;top=0;left=0;bottom=0;right=0;collapsible=0;dropTarget=0;fillColor=none;points=[[0,0.5],[1,0.5]];portConstraint=eastwest;fontSize=11;fontColor=#bbb;strokeColor=#BBBBBB;strokeWidth=2;" vertex="1" parent="OesEzoIPEQb2hPXuOrIZ-82">
          <mxGeometry y="9" width="22" as="geometry" />
        </mxCell>
        <mxCell id="OesEzoIPEQb2hPXuOrIZ-88" value="" style="shape=partialRectangle;html=1;whiteSpace=wrap;connectable=0;fillColor=none;top=0;left=0;bottom=0;right=0;overflow=hidden;fontSize=11;fontColor=#bbb;strokeColor=#BBBBBB;strokeWidth=2;" vertex="1" parent="OesEzoIPEQb2hPXuOrIZ-87">
          <mxGeometry width="11" as="geometry">
            <mxRectangle width="11" as="alternateBounds" />
          </mxGeometry>
        </mxCell>
        <mxCell id="OesEzoIPEQb2hPXuOrIZ-89" value="" style="shape=partialRectangle;html=1;whiteSpace=wrap;connectable=0;fillColor=none;top=0;left=0;bottom=0;right=0;overflow=hidden;fontSize=11;fontColor=#bbb;strokeColor=#BBBBBB;strokeWidth=2;" vertex="1" parent="OesEzoIPEQb2hPXuOrIZ-87">
          <mxGeometry x="11" as="geometry">
            <mxRectangle as="alternateBounds" />
          </mxGeometry>
        </mxCell>
        <mxCell id="OesEzoIPEQb2hPXuOrIZ-90" value="" style="shape=partialRectangle;html=1;whiteSpace=wrap;connectable=0;fillColor=none;top=0;left=0;bottom=0;right=0;overflow=hidden;fontSize=11;fontColor=#bbb;strokeColor=#BBBBBB;strokeWidth=2;" vertex="1" parent="OesEzoIPEQb2hPXuOrIZ-87">
          <mxGeometry x="11" width="11" as="geometry">
            <mxRectangle width="11" as="alternateBounds" />
          </mxGeometry>
        </mxCell>
        <mxCell id="OesEzoIPEQb2hPXuOrIZ-91" value="" style="shape=tableRow;horizontal=0;startSize=0;swimlaneHead=0;swimlaneBody=0;top=0;left=0;bottom=0;right=0;collapsible=0;dropTarget=0;fillColor=none;points=[[0,0.5],[1,0.5]];portConstraint=eastwest;fontSize=11;fontColor=#bbb;strokeColor=#BBBBBB;strokeWidth=2;" vertex="1" parent="OesEzoIPEQb2hPXuOrIZ-82">
          <mxGeometry y="9" width="22" height="6" as="geometry" />
        </mxCell>
        <mxCell id="OesEzoIPEQb2hPXuOrIZ-92" value="" style="shape=partialRectangle;html=1;whiteSpace=wrap;connectable=0;fillColor=none;top=0;left=0;bottom=0;right=0;overflow=hidden;fontSize=11;fontColor=#bbb;strokeColor=#BBBBBB;strokeWidth=2;" vertex="1" parent="OesEzoIPEQb2hPXuOrIZ-91">
          <mxGeometry width="11" height="6" as="geometry">
            <mxRectangle width="11" height="6" as="alternateBounds" />
          </mxGeometry>
        </mxCell>
        <mxCell id="OesEzoIPEQb2hPXuOrIZ-93" value="" style="shape=partialRectangle;html=1;whiteSpace=wrap;connectable=0;fillColor=none;top=0;left=0;bottom=0;right=0;overflow=hidden;fontSize=11;fontColor=#bbb;strokeColor=#BBBBBB;strokeWidth=2;" vertex="1" parent="OesEzoIPEQb2hPXuOrIZ-91">
          <mxGeometry x="11" height="6" as="geometry">
            <mxRectangle height="6" as="alternateBounds" />
          </mxGeometry>
        </mxCell>
        <mxCell id="OesEzoIPEQb2hPXuOrIZ-94" value="" style="shape=partialRectangle;html=1;whiteSpace=wrap;connectable=0;fillColor=none;top=0;left=0;bottom=0;right=0;overflow=hidden;pointerEvents=1;fontSize=11;fontColor=#bbb;strokeColor=#BBBBBB;strokeWidth=2;" vertex="1" parent="OesEzoIPEQb2hPXuOrIZ-91">
          <mxGeometry x="11" width="11" height="6" as="geometry">
            <mxRectangle width="11" height="6" as="alternateBounds" />
          </mxGeometry>
        </mxCell>
        <mxCell id="OesEzoIPEQb2hPXuOrIZ-95" value="" style="html=1;verticalLabelPosition=bottom;labelBackgroundColor=#ffffff;verticalAlign=top;shadow=0;dashed=0;strokeWidth=2;shape=mxgraph.ios7.misc.left;strokeColor=#bbb;fontSize=11;fontColor=#bbb;fillColor=#fff;" vertex="1" parent="1">
          <mxGeometry x="143" y="-420" width="6" height="12" as="geometry" />
        </mxCell>
        <mxCell id="OesEzoIPEQb2hPXuOrIZ-96" value="" style="html=1;verticalLabelPosition=bottom;labelBackgroundColor=#ffffff;verticalAlign=top;shadow=0;dashed=0;strokeWidth=2;shape=mxgraph.ios7.misc.left;strokeColor=#bbb;fontSize=11;fontColor=#bbb;fillColor=#fff;" vertex="1" parent="1">
          <mxGeometry x="141" y="-316" width="6" height="12" as="geometry" />
        </mxCell>
        <mxCell id="OesEzoIPEQb2hPXuOrIZ-97" value="TEMPLATE" style="strokeWidth=1;shadow=0;dashed=0;align=center;html=1;shape=mxgraph.mockup.containers.anchor;fontSize=17;fontColor=#666666;align=left;" vertex="1" parent="1">
          <mxGeometry x="60" y="-788" width="110" height="26" as="geometry" />
        </mxCell>
        <mxCell id="OesEzoIPEQb2hPXuOrIZ-98" value="http://www.a-rms.net/313devgrp/arms/pdServiceVersion.html" style="strokeWidth=1;shadow=0;dashed=0;align=center;html=1;shape=mxgraph.mockup.containers.anchor;rSize=0;fontSize=17;fontColor=#666666;align=left;" vertex="1" parent="1">
          <mxGeometry x="130" y="-740" width="250" height="26" as="geometry" />
        </mxCell>
        <mxCell id="OesEzoIPEQb2hPXuOrIZ-99" value="&lt;font style=&quot;font-size: 22px; line-height: 1;&quot;&gt;atlassian &lt;b&gt;RMS&lt;/b&gt;&lt;/font&gt;" style="text;html=1;points=[];align=left;verticalAlign=top;spacingTop=-6;fontSize=30;fontFamily=Verdana;spacing=0;" vertex="1" parent="1">
          <mxGeometry x="18" y="-673" width="272" height="40" as="geometry" />
        </mxCell>
        <mxCell id="OesEzoIPEQb2hPXuOrIZ-100" value="&lt;span style=&quot;color: rgb(32, 33, 36); font-family: menlo, monospace; background-color: rgb(255, 255, 255);&quot;&gt;&lt;font style=&quot;font-size: 18px;&quot;&gt;&lt;b&gt;Product&lt;/b&gt;&lt;/font&gt;&lt;/span&gt;" style="text;html=1;points=[];align=left;verticalAlign=top;spacingTop=-4;fontSize=15;fontFamily=Verdana" vertex="1" parent="1">
          <mxGeometry x="290" y="-603.87" width="79" height="30" as="geometry" />
        </mxCell>
        <mxCell id="OesEzoIPEQb2hPXuOrIZ-101" value="&lt;font style=&quot;font-size: 13px;&quot;&gt;Product&lt;br style=&quot;font-size: 13px;&quot;&gt;&lt;/font&gt;" style="text;html=1;points=[];align=left;verticalAlign=top;spacingTop=0;fontSize=13;fontFamily=Verdana;spacing=0;" vertex="1" parent="1">
          <mxGeometry x="50" y="-521" width="170" height="30" as="geometry" />
        </mxCell>
        <mxCell id="OesEzoIPEQb2hPXuOrIZ-102" value="" style="dashed=0;aspect=fixed;verticalLabelPosition=bottom;verticalAlign=top;align=center;shape=mxgraph.gmdl.edit;strokeColor=none;fillColor=#bbb;shadow=0;sketch=0;fontSize=14;fontColor=none;" vertex="1" parent="1">
          <mxGeometry x="20" y="-560" width="20" height="20" as="geometry" />
        </mxCell>
        <mxCell id="OesEzoIPEQb2hPXuOrIZ-103" value="" style="sketch=0;pointerEvents=1;shadow=0;dashed=0;html=1;strokeColor=none;labelPosition=center;verticalLabelPosition=bottom;verticalAlign=top;outlineConnect=0;align=center;shape=mxgraph.office.concepts.home;fillColor=#bbb;fontSize=14;fontColor=none;" vertex="1" parent="1">
          <mxGeometry x="20" y="-600" width="20.4" height="20" as="geometry" />
        </mxCell>
        <mxCell id="OesEzoIPEQb2hPXuOrIZ-104" value="" style="editableCssRules=.*;shape=image;verticalLabelPosition=bottom;labelBackgroundColor=#ffffff;verticalAlign=top;aspect=fixed;imageAspect=0;image=data:image/svg+xml,PHN2ZyB4bWxucz0iaHR0cDovL3d3dy53My5vcmcvMjAwMC9zdmciIHhtbG5zOnY9Imh0dHBzOi8vdmVjdGEuaW8vbmFubyIgd2lkdGg9IjE0LjAwMDI5OTQ1MzczNTM1MiIgaGVpZ2h0PSIxNS45OTI5MjI3ODI4OTc5NSIgdmlld0JveD0iLTAuMDAwMTQ5NjA4NDAwNTMzOTA3MTIgLTAuMDAwNDYxNzIyMDgzODU1NDIwMzUgMTQuMDAwMjk5NDUzNzM1MzUyIDE1Ljk5MjkyMjc4Mjg5Nzk1Ij4mI3hhOwk8c3R5bGUgdHlwZT0idGV4dC9jc3MiPi5zdDAgeyBmaWxsOiByZ2IoMTg3LCAxODcsIDE4Nyk7IH0gPC9zdHlsZT4mI3hhOwk8cGF0aCBjbGFzcz0ic3QwIiBkPSJNMTMuNjcgMy43MzZMNy4zNi4wOTZhLjcyLjcyIDAgMCAwLS43MiAwTC4zMyAzLjczNmEuNzIuNzIgMCAwIDAtLjMzLjYydjcuMjhhLjcyLjcyIDAgMCAwIC4zNi42Mmw2LjI4IDMuNjRhLjcyLjcyIDAgMCAwIC43MiAwbDYuMzEtMy42NGEuNzIuNzIgMCAwIDAgLjMzLS42MnYtNy4yOGEuNzIuNzIgMCAwIDAtLjMzLS42MnptLS44NyA3LjJsLTIuMi0xLjI3di0zLjM0bC0zLjI1IDEuODd2My44bDIuOS0xLjY3IDIuMiAxLjI3LTUuNDUgMy4xLTUuNDUtMy4xNSAyLjItMS4yNyAyLjkgMS43MnYtMy44TDMuNCA2LjMyNnYzLjM0bC0yLjIgMS4yN3YtNi4yOWw1LjQ1LTMuMTR2Mi40OWwtMi45IDEuNzJMNyA3LjU4NmwzLjI1LTEuODgtMi45LTEuNzF2LTIuNDlsNS40NSAzLjE0eiIvPiYjeGE7PC9zdmc+;fontSize=14;fontColor=#bbb;strokeColor=#BBBBBB;strokeWidth=2;fillColor=#fff;" vertex="1" parent="1">
          <mxGeometry x="19" y="-519.29" width="23" height="26.29" as="geometry" />
        </mxCell>
        <mxCell id="OesEzoIPEQb2hPXuOrIZ-105" value="" style="html=1;verticalLabelPosition=bottom;align=center;labelBackgroundColor=#ffffff;verticalAlign=top;strokeWidth=3;strokeColor=#bbb;shadow=0;dashed=0;shape=mxgraph.ios7.icons.looking_glass;fontSize=11;fontColor=#bbb;fillColor=#fff;" vertex="1" parent="1">
          <mxGeometry x="22" y="-319" width="20" height="20" as="geometry" />
        </mxCell>
        <mxCell id="OesEzoIPEQb2hPXuOrIZ-106" value="" style="html=1;verticalLabelPosition=bottom;labelBackgroundColor=#ffffff;verticalAlign=top;shadow=0;dashed=0;strokeWidth=2;shape=mxgraph.ios7.misc.down;strokeColor=#bbbbbb;fontSize=11;fontColor=#bbb;fillColor=#fff;" vertex="1" parent="1">
          <mxGeometry x="140" y="-511.14" width="12" height="6" as="geometry" />
        </mxCell>
        <mxCell id="OesEzoIPEQb2hPXuOrIZ-107" value="" style="shape=message;html=1;whiteSpace=wrap;html=1;outlineConnect=0;fontFamily=Helvetica;fontSize=11;fontColor=#000000;strokeColor=#bbb;strokeWidth=2;fillColor=#FFFFFF;" vertex="1" parent="1">
          <mxGeometry x="789" y="-664.74" width="26" height="20" as="geometry" />
        </mxCell>
        <mxCell id="OesEzoIPEQb2hPXuOrIZ-108" value="" style="html=1;verticalLabelPosition=bottom;align=center;labelBackgroundColor=#ffffff;verticalAlign=top;strokeWidth=2;strokeColor=#bbb;shadow=0;dashed=0;shape=mxgraph.ios7.icons.bell;fontFamily=Helvetica;fontSize=11;fontColor=#000000;fillColor=#FFFFFF;" vertex="1" parent="1">
          <mxGeometry x="835" y="-666.29" width="24" height="23.099999999999998" as="geometry" />
        </mxCell>
        <mxCell id="OesEzoIPEQb2hPXuOrIZ-109" value="" style="sketch=0;pointerEvents=1;shadow=0;dashed=0;html=1;strokeColor=none;fillColor=#bbb;labelPosition=center;verticalLabelPosition=bottom;verticalAlign=top;outlineConnect=0;align=center;shape=mxgraph.office.concepts.settings;fontFamily=Helvetica;fontSize=11;fontColor=#000000;" vertex="1" parent="1">
          <mxGeometry x="913" y="-669.24" width="29" height="29" as="geometry" />
        </mxCell>
        <mxCell id="OesEzoIPEQb2hPXuOrIZ-110" value="" style="sketch=0;pointerEvents=1;shadow=0;dashed=0;html=1;strokeColor=none;fillColor=#bbb;labelPosition=center;verticalLabelPosition=bottom;verticalAlign=top;outlineConnect=0;align=center;shape=mxgraph.office.users.user;fontFamily=Helvetica;fontSize=11;fontColor=#000000;" vertex="1" parent="1">
          <mxGeometry x="958" y="-668.87" width="26" height="28.26" as="geometry" />
        </mxCell>
        <mxCell id="OesEzoIPEQb2hPXuOrIZ-111" value="" style="sketch=0;pointerEvents=1;shadow=0;dashed=0;html=1;strokeColor=none;fillColor=#bbb;labelPosition=center;verticalLabelPosition=bottom;verticalAlign=top;align=center;outlineConnect=0;shape=mxgraph.veeam2.turn_on_off;fontFamily=Helvetica;fontSize=11;fontColor=#000000;" vertex="1" parent="1">
          <mxGeometry x="999" y="-669.74" width="30" height="30" as="geometry" />
        </mxCell>
        <mxCell id="OesEzoIPEQb2hPXuOrIZ-112" value="" style="html=1;verticalLabelPosition=bottom;align=center;labelBackgroundColor=#ffffff;verticalAlign=top;strokeWidth=2;strokeColor=#bbb;shadow=0;dashed=0;shape=mxgraph.ios7.icons.looking_glass;fontFamily=Helvetica;fontSize=11;fontColor=#000000;fillColor=#fff;" vertex="1" parent="1">
          <mxGeometry x="745" y="-665.74" width="22" height="22" as="geometry" />
        </mxCell>
        <mxCell id="OesEzoIPEQb2hPXuOrIZ-113" value="Search" style="strokeWidth=1;shadow=0;dashed=0;align=center;html=1;shape=mxgraph.mockup.forms.searchBox;strokeColor=#999999;mainText=;strokeColor2=#008cff;fontColor=#666666;fontSize=17;align=left;spacingLeft=3;fontFamily=Helvetica;fillColor=#FFFFFF;" vertex="1" parent="1">
          <mxGeometry x="529" y="-670" width="190" height="30" as="geometry" />
        </mxCell>
        <mxCell id="OesEzoIPEQb2hPXuOrIZ-114" value="" style="line;strokeWidth=2;direction=south;html=1;fontFamily=Helvetica;fontSize=7;fontColor=#000000;fillColor=#FFFFFF;" vertex="1" parent="1">
          <mxGeometry x="884" y="-668.87" width="10" height="30" as="geometry" />
        </mxCell>
        <mxCell id="OesEzoIPEQb2hPXuOrIZ-115" value="" style="verticalLabelPosition=bottom;shadow=0;dashed=0;align=center;html=1;verticalAlign=top;strokeWidth=1;shape=mxgraph.mockup.graphics.simpleIcon;strokeColor=#999999;fontFamily=Helvetica;fontSize=18;fontColor=#000000;fillColor=#FFFFFF;" vertex="1" parent="1">
          <mxGeometry x="290" y="-564.14" width="219" height="224.14" as="geometry" />
        </mxCell>
        <mxCell id="OesEzoIPEQb2hPXuOrIZ-116" value="&lt;p style=&quot;margin: 0px; font-variant-numeric: normal; font-variant-east-asian: normal; font-stretch: normal; font-size: 11px; line-height: normal; font-family: &amp;quot;Helvetica Neue&amp;quot;; color: rgb(0, 0, 0);&quot; class=&quot;p1&quot;&gt;-등록관리&lt;/p&gt;&lt;p style=&quot;margin: 0px; font-variant-numeric: normal; font-variant-east-asian: normal; font-stretch: normal; font-size: 11px; line-height: normal; font-family: &amp;quot;Apple SD Gothic Neo&amp;quot;; color: rgb(0, 0, 0);&quot; class=&quot;p2&quot;&gt;-변경관리&lt;/p&gt;&lt;p style=&quot;margin: 0px; font-variant-numeric: normal; font-variant-east-asian: normal; font-stretch: normal; font-size: 11px; line-height: normal; font-family: &amp;quot;Apple SD Gothic Neo&amp;quot;; color: rgb(0, 0, 0);&quot; class=&quot;p2&quot;&gt;-리뷰관리&lt;/p&gt;&lt;p style=&quot;margin: 0px; font-variant-numeric: normal; font-variant-east-asian: normal; font-stretch: normal; font-size: 11px; line-height: normal; font-family: &amp;quot;Apple SD Gothic Neo&amp;quot;; color: rgb(0, 0, 0);&quot; class=&quot;p2&quot;&gt;-현황관리&lt;/p&gt;" style="strokeWidth=1;shadow=0;dashed=0;align=center;html=1;shape=mxgraph.mockup.text.bulletedList;textColor=#666666;mainText=,,,,;textSize=17;bulletStyle=none;strokeColor=none;fillColor=none;align=left;verticalAlign=top;fontSize=11;fontColor=#666666;spacing=0;" vertex="1" parent="1">
          <mxGeometry x="50" y="-405" width="60" height="39" as="geometry" />
        </mxCell>
        <mxCell id="OesEzoIPEQb2hPXuOrIZ-117" value="&lt;p style=&quot;margin: 0px; font-variant-numeric: normal; font-variant-east-asian: normal; font-stretch: normal; font-size: 11px; line-height: normal; font-family: &amp;quot;Helvetica Neue&amp;quot;; color: rgb(0, 0, 0);&quot; class=&quot;p1&quot;&gt;- Time 분석&lt;/p&gt;&lt;p style=&quot;margin: 0px; font-variant-numeric: normal; font-variant-east-asian: normal; font-stretch: normal; font-size: 11px; line-height: normal; font-family: &amp;quot;Helvetica Neue&amp;quot;; color: rgb(0, 0, 0);&quot; class=&quot;p1&quot;&gt;- Scope 분석&lt;/p&gt;&lt;p style=&quot;margin: 0px; font-variant-numeric: normal; font-variant-east-asian: normal; font-stretch: normal; font-size: 11px; line-height: normal; font-family: &amp;quot;Helvetica Neue&amp;quot;; color: rgb(0, 0, 0);&quot; class=&quot;p1&quot;&gt;- 투입 인력 분석&lt;/p&gt;&lt;p style=&quot;margin: 0px; font-variant-numeric: normal; font-variant-east-asian: normal; font-stretch: normal; font-size: 11px; line-height: normal; font-family: &amp;quot;Helvetica Neue&amp;quot;; color: rgb(0, 0, 0);&quot; class=&quot;p1&quot;&gt;- 진척 상황 분석&lt;/p&gt;&lt;p style=&quot;margin: 0px; font-variant-numeric: normal; font-variant-east-asian: normal; font-stretch: normal; font-size: 11px; line-height: normal; font-family: &amp;quot;Helvetica Neue&amp;quot;; color: rgb(0, 0, 0);&quot; class=&quot;p1&quot;&gt;- 제품(서비스) 출시&lt;/p&gt;" style="strokeWidth=1;shadow=0;dashed=0;align=center;html=1;shape=mxgraph.mockup.text.bulletedList;textColor=#666666;mainText=,,,,;textSize=17;bulletStyle=none;strokeColor=none;fillColor=none;align=left;verticalAlign=top;fontSize=11;fontColor=#666666;spacing=0;" vertex="1" parent="1">
          <mxGeometry x="49" y="-299" width="60" height="39" as="geometry" />
        </mxCell>
        <mxCell id="OesEzoIPEQb2hPXuOrIZ-118" value="&lt;font size=&quot;1&quot; face=&quot;menlo, monospace&quot; color=&quot;#202124&quot;&gt;&lt;span style=&quot;background-color: rgb(255, 255, 255); font-size: 12px;&quot;&gt;Product &amp;amp; Service &amp;gt; 등록관리&lt;/span&gt;&lt;/font&gt;" style="text;html=1;points=[];align=left;verticalAlign=top;spacingTop=-4;fontSize=15;fontFamily=Verdana" vertex="1" parent="1">
          <mxGeometry x="869" y="-601" width="170" height="30" as="geometry" />
        </mxCell>
        <mxCell id="OesEzoIPEQb2hPXuOrIZ-120" value="&lt;span style=&quot;color: rgb(32, 33, 36); font-family: menlo, monospace; background-color: rgb(255, 255, 255);&quot;&gt;&lt;font size=&quot;1&quot; style=&quot;&quot;&gt;&lt;b style=&quot;font-size: 11px;&quot;&gt;Service&lt;/b&gt;&lt;/font&gt;&lt;/span&gt;" style="text;html=1;points=[];align=left;verticalAlign=top;spacingTop=-4;fontSize=15;fontFamily=Verdana" vertex="1" parent="1">
          <mxGeometry x="359" y="-610" width="79" height="30" as="geometry" />
        </mxCell>
        <mxCell id="OesEzoIPEQb2hPXuOrIZ-121" value="&lt;font size=&quot;1&quot; face=&quot;menlo, monospace&quot; color=&quot;#202124&quot;&gt;&lt;span style=&quot;background-color: rgb(255, 255, 255); font-size: 12px;&quot;&gt;등록 관리&lt;/span&gt;&lt;/font&gt;" style="text;html=1;points=[];align=left;verticalAlign=top;spacingTop=-4;fontSize=15;fontFamily=Verdana" vertex="1" parent="1">
          <mxGeometry x="419" y="-603.87" width="170" height="30" as="geometry" />
        </mxCell>
        <mxCell id="OesEzoIPEQb2hPXuOrIZ-122" value="" style="verticalLabelPosition=bottom;shadow=0;dashed=0;align=center;html=1;verticalAlign=top;strokeWidth=1;shape=mxgraph.mockup.graphics.simpleIcon;strokeColor=#999999;fontFamily=Helvetica;fontSize=18;fontColor=#000000;fillColor=#FFFFFF;" vertex="1" parent="1">
          <mxGeometry x="519" y="-564.14" width="510" height="524.14" as="geometry" />
        </mxCell>
        <mxCell id="OesEzoIPEQb2hPXuOrIZ-123" value="" style="shape=image;imageAspect=0;aspect=fixed;verticalLabelPosition=bottom;verticalAlign=top;fontSize=11;image=data:image/png,iVBORw0KGgoAAAANSUhEUgAAANMAAADeCAIAAAAo+6JQAAAmMklEQVR42u2dCXwUVZ7HX3fnvoEQCFcMBgEJgQEBE0E0kMQAESXcCOLouB8R1x1BcBZ15zPCzscRmI/zUXcXBQQkGUjCncihuBsdiSLIEVEQJgY0NBEIOTud9LGv7ldVr/pKd1d1+v0Mbae6ru7+5lfv1fvVv3R2ux0QEfldOoa81atXq70nRFK9+eab/HOj0bhnz57a2lq1d6pLSklJmTVrVt++fQFDHsQOfZNEGhH6vbz33nvDhg0bM2aM2jvVJZ0+ffqHH35YtmwZIORpWej3Ap//4Q9/UHuPvKA///nPzJsi5GlXhDwidUTII1JH7pHXcbv2ytUGM4hNGprSLzJE7Z1XkmPy6j9dv/5IPfUsfclflqRTT6o/Wn8jd+WUJH6e6u2rtleL1snPK1H19vU3HkEXlc/x0art52RTM5b85Yl0BzML24NbMD6ycmqSwo5BJeWtxO4B5p2iaxPtGL8/cKGjfVbi9s27cpk80w9739tRVW/hfg9JGjfnt7NH9/D1DqKq3rGhPm9FdpKz+dz2PAl5MhAdfB9OyYNLHu6zcokr32T9J+u3gyU0FpCww/0ZnkTkOd95ZLvrf3mEAQ4+p1asvDbqXYwZ/e32ozSnCn8V3pWL5F0p++Omr02Qtrxp49KiTZdPHTleVWeKTl/88uL0SNncvx7fwP6tgfTFby722pvwAnmCDdBi3cK55ynZijfJE8/JIyJiRbL/DnZOvGO4tQWA5zVWvv2f5XX98la8kJ2kZ6eZzux4s7g6cvKLq6f1k7zlHauP9F+5Iru313fWu56H+Q6UDqmO9sl75IlXxRMgOdo6O7jj14YnT/T3Bh13vcY8r/kf7609UCtzr9ry/3yvMjxvhQQFaHjbwWIZH9U7V+9gGjDseuqPb9jA/fVy06p37AC/ATt2VCcxq4UQ76gW5oDkHamHEi2DkRPy5B+x8B1g21GIZGxiTQgk5a5EXMqL5OE3h/2LgX9Op0cz0/HHbvxhWkueV//phg1HLdm/X53XVzSZQqd53LN/nH235C1DyMDiNxchOw8ROvsbegpcagdYInJEuH44/wrqqAfR6g9dLZ1dRuKdFIiAAU6Bb0bK5NFfHOCxoDirh4eqPkexTSW3pEgYvoeBOUK6crR1d5dc7mHwu6Ql8hjr6Tfj1RcnxQoTO85s/Y/iHwY99upzmbEKiyTlrlhBf7rVOzfU53IMQbxu5K1AP3WI0dGkFZBL5CUBR3SlwtEWEnwkaQXe9bp6VgXLCmJjWLnRk1BcBTRj4yO0DWNcCk+wIA+aCmrKJfJsV0rXbjpp6vfgvzw7/S66Q2Gpq9yyqfyKadi8dU+NUTy7wtEDkAMrJYZI2kq5qRm0R4rJO9JHQpaonSeiWSyn5GGOqU6+N+fG4wXygPOzKu6uTrasZAq2daGZdh4l4/G33z5SZwMhsbGRemBpbTbR51dixyxeMQ/Tu+XfJ81KerXcn4Tjr2ee1yXyxPsIv2wg+qxd9DznJrQEbHev1YjdP4/P5+Fnd2LemjraMmq+cryk9NMfb1sgfz1Sxuc+2OObUmh7DuCjXM2YB/HinyCfiUCe0C4UHYiRVh2/jDfJ478V2Z+4whkyleSsb+tob516nlwaJE8uW/2JD97bd8XUc8qLq3O5cyvIyTz2GEq/H1lPVpiSnptXb5R6nmRVXN/WG+SxXsUDxyHIO5DQ+UWl7Cy+FfE8rGz1J4vL6+6bP3NopHsL+lJk3DYARBIDROqIkEekjgh5ROqIkEekjrr/dRiAXHumSXX/a88AaFB7l4iCTo7IGzRo5NWr59XeQ6Luqa563vvvl4aGhhoMBn4KtmiB2Wz+3e9my6d3HP+r9dxeoDOEZMwMffjf1P40iPynrnre9u0HJ06cmJiY6GCetra2o0ePLllSIJlu/nKzre5sZEYesNtM54/p+40Kz3pa7Q+EyE/qqud99FF5bm5uWFhYZ2enwRCi1+v08J9OZ6D/0xn0Bp0evlRWVrZ48Qx0wbYv3rdePRWZMqTx6wqgA/HjpplqfzQMGhs18Xcub/zkOt07qde2LRzgzU/EWPzk5tRta+6XTky+vNz+2jjsq+Dn0sKtKWWvjfPmfnR3Ofe8oUPvv3ixSml5SN7UqVPh0RbipadFYYcgGBISYrFY9u3bh5LX8n//01l7OnpQ2u2TFVHjlsIpbSc/7DluWuvVy6EpY2Im/wtuU/VFc4ctKuF++9MRu6vfNFxwR+ruFZnO1rn2xG2IFJ4tToQ8b8mJ50Hs4AyXLn2lNANDHnwCyYOPEEGIGgRObzDoAMQOMhhitVv379//xBPTmUXuHP+vjppTsYPuqT95MHbCU7EP/iuc2Fz5t+avtiaNK2i+eiksdWxC9nOyTTkAyLEUFoS4DHx2DE0bKkKef+SIPIjd2LFjT5065cDzdu6smDJlSictiB30OeaRN7/QUCoWy5N385N32y9/Ez/oXuPJvfH3/zbh4RdtNhucDue/89nbjVVb+o57vPHqhYi0+xKnPi/elBwgfkp90RuVqWkHsxYehL71dM2TyQsPUq9DX3yqFuK1h557VtEPZQuSkGWH1bx0W04YZOv5vWBPCb2GOZuu755NnX2q2lBYsxgujpAn+OXaok2nLxPy3JMieQx28Ikr5MGuK3+0NdDi4WN6vjx5Ne8s6TEw/eevS3s+8HSvKb+H2DF9Ycom9fpbn/719j82Dxg/u+FaddSQcX3yXkA25Zi8l2vS3lpDgXVy3dzapxlcFBcEuNlYUU26vQUMcCfe6Hk8h6ZTRh58KQswR3wawZGuH/2JKOHJ47EDHHlMm0/e22XIg71XCB+DHXu05cwvFPY+QkMFzyt76+qJ4t6Tf9c75yUeO3ZX6KV+PbbxZuUHKVlPXP26ePSfv0Y2JWqT0QYGBPIEtuDzl8FGtNuBI0/5+Cg6nnLAycgTr7Nqg+7Yg4Q8t4Qhj2nbQQ74KU49r6Wlpb29XXK0ZcwPghgZGcmTd3LFaGPvh6e++F9Wq1V+5o8+QBuOb/xt36ZvkiYtGDjj98iLDj1P9BLDaMFOttvrtucJ5PGAOiaPtPPcV1fPqjDkNTY2mkwmCBkDHEC6GvBoGxsby5Nnqv9pz7HvZs58DJL34YcfSta2dOlS+tC8b8KQiLTxU8Qvuk4eo5PrdJXZdqVX5dbIymXykMWJ57kv75DX0NAAj7bwVwY+0dE2NDQhIQHt227ffuCxxx6H5FVVSa30/vvvh0vt27f34YfHDhzYX/yid8lzrW+rSJ5who+08zxTV8krKvo4OzvbaDQy5EGFh4cDBEH4a2Ji4sGDBxctmsbMsHXr3sLC2RaLZceOHZK1LV68GC5YVlY6dep4D8mjeWI6s2s5qihKYG+X76gKgnTmvcr9gjmfp0we6dt2UV4Yw8jLy4uNj7NZrGjTUAf9DlC/wokQsrKyMt7zNm8uY8j76ivpacIJEyYw5OXm3i8jj6hbyQuJAdiBgP1XSJjSDQ4gZK2trXxiYNOm3XPmzIUTi4qKJHMuXLgQkldSsjs//wFCXveWCvm8zz8/deHCZQcz9OgR89BD45OSvF9qi0g7IslQInVEyCNSR94njySZiVyROp7XxSQzVmfqTpR/X3zh9qlmW+OBedUuLkWkltTxvK4kmbEqPf/+36pej4yKjgvpEWaP2Dn/c99/dERdkjqe53GSWUnN5jvnjSeH9BqZENnTbrOHhYZzr8jPFbOnncEbG8Br7HlpKnjyunSd4lQVkZflK8/zRZLZqfhDNnpOm9eJN56seWrbwgEY8ijxsRRhTh9/9sEtn3ieL5LMXRYfTiHkaULeJ88XSWYoS3tLzaF3O5tuydemD4sYmL0out9QB3tFJY3B8sK9efRI65ov7Sh5oiOyIMw4L5HX5GXyfJRkhjJW7QWGpt7D03RIL9gO/wN2k9F4terc4ILlYdE9qHcETTQ0TLxBii3ABggUPI/Iv/Imeb5LMkP9sOO1wQU5obZOHWzOMchRjzb4aLNab9Vcq6uusVhtFqsdPk584a/I1phLLo6ATFFoiiWvaoMuc52DN7X2xG2lq4GIuiKvkefTJDPUhS2rhs4p0He0A8Ck6OE/Gw2hne5awA5tFGOB8CcicRq3KSQ8ByHbmHJ994PHlT3P8YVnRF6UOufz3E0yA4a82dN1HW1Wi81i6bRYrFarxW61Ms5HuyBrgZDCXvc+wyyF5DfZXzenvpW6kZxVUV/qnM/zIMkMybunMB+YWjo6O9va2ltq68zX64EOv/6hS/6ivHHs+TxZZxbp6hL5Qup4ngdJZkjekFm51pbGNlN7852W9u//OSBvkt7eQh9eAQDsYZc+p2eP6rdEeeOEPE1ItTEMd5PMkLy7Z07paLzZ3GJq+el6TM9ePQbH2Npu0sBRDT6q2Uc9oX5ihr+uvHEyhqEJqeN5HiSZv9v8cuqMyW23b0DD67hcNyD3AdD8I7BZ7Cx51A8PX+yItWp/sEROFDD5vOoPXh7wSGbLr3WtNfVxffvFDwyxtdULwNHM2e1WZkpcxltq7y+RE5F8HpE6ChjPI+pm0ornEacMNgWS53mWZK6u/mdt7XXsClNSktPTB6v9toJUgeR5niWZDx36Yto0TNTqwIEDISGGgQP7jBo1xItvn8hFBZLneZZkPnCgMj9/mtwdKyoqCgoKyssPDRrUd/Toe9R+c0GnQPI8z5LM+/b9L/S84uLi0aNHnzlzBj4OHUol+Q4fPszNYs/Pz2QGUYj8pgDzPA+SzGVln86YUcDUxJULruTgwQOTJmWQkgZ+ViB5ngdJZqjS0k+mT5+xa9euUaNGnT17ln+8ePHiiBEj0tLS4AF3woTh4jIuaH1SKsBMDbJVbVgHHgSZea9SWeUHj79RCcCzi6gxN6pEZOpWZvyNLxfJ55z5KUQiBZLneZBkhtq160hBwaNKngcXhJ6XlZWuVECIjtG/xRas3ZiycvdsribusLLH6YFdum4aKOKe01XPSM7PqbTlefJHdB4PksyAysVUzJz5WElJSUZGxrlz5/jHS5cuDR8+HHre/v37Jk0apVi6SlZCj56KFvPjS0QC4TojUkXUmQLP89xKMgOqdXiIKY6LXSdTHHfy5N9IyGOLPTL6ExtpViRPKLmMPGdy9m7cMSa4pC3PczyPB0lmqG3b9j/++KyKigrolLADiz5CHAsKCvbu3ZOdfZ+IPNSxXPE8LHm0hIM1kViB53luJZmhtmzZU1g4++OPP87JyZGs8NixY/n5+WVlpTk5E5TIE+57QcjzqgLJ8zxIMkN98EHp7NlzIHkdHR2wHYg+Qs+bMWNGaWlJXl6mUt9WqIHsDnk1fNSUXLSroEDyPA+SzAApjotdJymOq5YCyfM8SDIDUhxXqwokz/NY8Ojc2NhkNndgXw0PD4uPjyOjZ35WIHkeUXdSUHgekQZFPI9IHQWS55FMcndSIHkeySR3JwWS55FMsiNRkZnalfaAqQgYSJ7nt0yycBN5XuzobQqS28MF78TV+BzX3gvyJFWAeZ6fMsmyjBOGEqzHuBOOIuQFjOf5N5OM3ksXTeAJwlagwpBXtWFdTcrphcxdd5mEM5J5Zgd2+SlIqvkNkA3ysl6HU5bXbK1NPf8sswhfashYvOF4akpZ5rN7qCwWEKKBjO/yQ8b8FC1FtgLJ8/yZSRYZEraiGVuBVJwGUCBPlwmYSD1aSRLdBBJp4Sk/uW7uO6kvbVtIzSCp88zeyB6S9/zllHdfQ8MKbEVU5I9E+LPRVHBGW56noUwyPJi+BN6lwRJ7G3eBBdY/RO08zr1QcPm0n4g8kcVy0xXDVzxA4uO1EJMRNVJFfzbSEJeKCjzP808mWbAWICAoEuJkook4z8N+9wg30tsi0F0TD8nry5UDZPo3onA10FBqS1ue53ge/2WSGdHEvAteVjpCud7Oc04exorE5AlHW/j8ndRrzNEWTx4t9i8n+3ON9mMCz/P8kUlmBb/LSvi/7N24k2Su922dk0e51Po0SYlSiefBPVn3KhNW5U7WuEIe5dmaPM8XSJ7nx0wyKyEKz4i+wHEP+8uaL+Vfp/h8HtsJVWppsWtjmoPIAZc9IDoK2TPCkZeymVsP0gUWDrjaub1HIHleEGeSNdQz8JYCyfNIJrk7KZA8z2ORTLIGFUieR9SdFBSeR6RBEc8jUkeB5HmeZZKJtKlA8jx3M8mdrQ1Xj24xN9zgX3Xl7t9E/lEgeZ67meQre9YnDEtJGJjM3YzZbrpxo/bEudT8Z6J6pwClG0X6WMx5XXJTNfU9r6jo44UL832RSf5+25ohj+UaLOamFkv1lY5fburbrfpwe3v4ndr4juvA2m6x6pLTJ6RPe0K2KaQwIyMkY0ILHeN3qyooek5YkgIMLqnveZA8yM38+XlO53Q3kwzJS3t0Smtj21fVna3hybr4nqER4eF2i+X2zY5blx64Lzbc2vTZzi+nvfJ2SGgY0KEWSA16loGMlTwWKHnUENk5T2vQEvJYacLzcnJyysvLly6d6XhOdzPJFHkFD1WdarqpH9Ac29cMwiL1IC4U9DZYW+pqr35RknWXgcVNZ4gfMiZ54nxuUzQTL4EseRU9JCoilrwwsuCL/AAuP6q7dv+m0zPZIeDgPPJqwvPmzp3b0NBQUlKybNkCB3O6m0mG5N09fdKeT9uj0tLr7bFxifExBluMwR5nANEdrZ/sL170aFyIATb/bE3XrjVeNA1b+ia3Kf4euFwOiidPethlJbuoQpIiHlbz0m1ZIIp4ntqeN2/ePPikvr5+y5Yta9Ys81YmGZI3eFpm2Wf6nsNGNIYlxEbq4/SdCWFhMSGGCHt7WVHxnEnGyFCrqaX918um2AETBz20kNsUxwSfTMZXDkUkyUcp/krIY6UhzystLX3uufkO5nQ3k3zhw38fnD/+UCXoPSTDnNg3wtaeGBGWFBUTotc13qwrL/uwcGJDRKjl1s8tdT8axi79Y2SPPtymBCbYAPCkSseeRwktjCwBVMjWE/JYacLzYL+hoqLCxXae65nk6q2v3P3IfUfKa3rem5uQOhC+08TI2PjIyI725q++PPHTub8XZofbzZ0/XTB3xo6ZuOAFpJMhK/1+LWW90M7DXIfGiyU1dQfxPMdS3/MgTxAdV/q27maSz76/evDUjO8Of3sxZGDayMzk/snxMQltra3V57/75psLcdH29OQr/SMaL35rvXfBK2nD7tXhyWMuMzs3a+RyV/q23EUSQNS2Q7PshDxamvA8F8/nuZtJ/ua/V/W8q5fdEApimyr/8Uu7PhUY4jrNv4K2Kw2WIcPTsywdTfrrn9hBYsGy1dHR0YrkMRfDjlQKJ6P3AEIvsRH6tkgSWHotD5UW1sxVOf6U+p7nutzNJFe9t8psar5nYv/OxlqrxdJhgW811G4zh+gsl42h315Pi4hJvvXdsakLnhmflRUVHaXTqTOqEZxS3/NcX8rdTPKl46U/fnHYbG630wLUEpAt6n82O7jTGVZb39SjT3Lh8lVJSb2jo6N89iETYRRInueBzCbTdaOxualZGKVFjA22DiOjouLiYLckBgKt9s4GlwLJ84i6k7q55xFpVsTziNRRIHkeqZPcnRRInkfqJHcnBZLnaatOMr4uMb4YAFf7J6gHLSQKJM/zW51kdtACyIYW6KGLMY5Kk3SBPGztPW9JWLm31+ypAszz/FQnmR49qxl5LlVcpAwCdBz+L2ebr8hDg6jYon2eSZNl4wPJ8/xdJxnNJFOiqMp+/OBxWdG7E9zdbGcVbRqzFzwtqU48Z9POkQeBhDx+5BetZixsjpuzasM68CDIzHuVmQ0ZL2bHgkW1TelqoQPEwX24zpxKXN1wh5WZ92csOssvwr1T3D6Ldk9d8nwnP9ZJZr74xTXiIrLPg7feBS9Lyi2C4ieT9xZc5xE8zyNysJCrVstlW3jyhFrHAnAoeXwR5qoNhRtTVu6ezcHKrVNev1EATuAb8VrxBU2uVGbmzZvNGgLsPgu756a05XmaqZPMfnmpslLGqbJCnzVo5VDegaQ3AGe+MyTqLMRLBXtD2nlccT5kPZL62mJ03jk9R7heCVdpmc3FrBUC+o4rMwsVUdknAL/P+IS2KuT5Tn6sk8x/MciBhv7cjY7J4+cXfyXSdp64wCPLmbN6o9JLPZD50ZLzwm68VPu8DAvuJjNOKzPzm66V3uxAvM8aIs93oxF+rJMsPWClbmXxwpGH1GJHPE/caBN7ntJtDpyRh/c8eqOFI5+tQUrC001PXFVT9k8IOKvMDKT4KuyzhsjznfxYJ1ncFdhaO+Z8imJZbeTGGEI7D704EtPOw1066UqNZX4poc3HYy11LOzdiPiCzM4qMzMzP7n+PCjcKG1ZKuyeewokz/NjnWS0GYRes4gv6O5J3xY5eAlX4zohD81Csx1S1AjR56Jbt8m3BYCoTAKmMjO3IHq3Gdw+a4g83ymI6yS7I4ZOLd1oCqtA8jxSJ7k7KZA8z2OROskaVCB5HlF3UlB4HpEGRTyPSB2p43m+qHh8pu5E+ffFF26farY1HphX7ed3ROSu1PE8z9LFDlR6/v2/Vb0eGRUdF9IjzB6xc/7nvv/oiLokdTzPs3SxAzWb75w3nhzSa2RCZE+7zR4WKu2oSgc9xTVAxaP7fJwEl6XrwrlTIlS+8ryhQ++/eLFKaR7P0sVOxR+y5XUqvEWe9O6PRJ7KJ54HsYOrvXTpK6UZPEsXd0XSuyB7Rh47Ns8MhXn3Mws6eZ88iN3YsWNPnTrlwPM8SBdb2ltqDr3b2XRLvjYX7nLBj3Yjg5X8+BI2/4MhD12JoxJ6RK7Iy+Qx2MEnrpDnVrrYWLUXGJp6D0/TIb1gukqP3WQ0Xq06N7hgeVh0D+odQRMNFRdJQat5MnLX8yTX/ji/FIjIibxJHo8d4MjzYrr4hx2vDS7ICbV1crdVATR4Nvhos1pv1Vyrq66xWG0Wqx0+Tnzhr8jWmLDJD6kbhciJe+RR4AJZ1g0TMSdyXV4jj2nboU17p57nVrr4wpZVQ+cU6DvaAbDZbHBT8J+NhtBOdy1ghzaKsUD4E5EopKSEPgF6HYPHfVsiL0mdsyoepIsp8mZP13W0WS02i6XTYrFarRY7lXGnnI+5uRRjgZDCXvc+w25JnjBjMnDSO6u40s4j8qbUJM+tdDEk757CfGBq6ejsbGtrb6mtM1+vV7p12dAlf3GyBw5KvLNCrtYRCtNiFJz3Uem61CHPg3QxJG/IrFxrS2Obqb35Tkv79/8ckDdJb29haoACwB526XN69qh+S5zsgevk+fmjCRqpNobhbroYknf3zCkdjTebW0wtP12P6dmrx+AYW9tNGjiqwUc1+6gn1E/M8Ned7AEhT22plhhwN1383eaXU2dMbrt9Axpex+W6AbkPgOYfgc1iZ8mjfnj4YkesVfdjJXKqgMnnVX/w8oBHMlt+rWutqY/r2y9+YIitrV4AjmbObrcyU+Iy3lJ7f4mcKGDII+pmIuQRqSOtkEeSzMEmrZDnikid5O4krZBH6iQHm7RCnivSVp1kNSSrGRXA0gp5GquTzAl7Q1FZzWH2lo2slAoR8zU6AdB86Qk/SCvkuSI/1klmRSWZ0zLKgKSmjrTmsChqrxDdw9VuCmpphTyN1UmmxY6wpUjvsiyr+IS5yENaXxspTyvZhGLl4fXvgv9L4BZhNwGQQJdgvXy4RlL3WNPSCnmuyI91kikZizccn7SCKYC3DqzgwMLXHBaRh+UMEy+td1x52CirlSuUfJSkv/B1jzUtrZCnsTrJgPqyi2sXLhgne05JXHNYTp7sgiNW9FUgvL397KzyMD8D/0ReLJvfW0zdY7W/VIfSCnmuyI91kuVxUcwhjK+OiPM85ZwLWtHWSeVhWVlwgTz51Unyusdqf2EOpRXyXG/n+aVOMqRqA3gN+Wp/Ll33+YNrJP0DTNlubrrD+6iwjviz88rD9JrfSt0oXBGi4Hn4O8BoWVohzxX5r04yJr2HsTG+uyoiD3siBpXQO3ah8jAF8UEwcrn0khFZqzHg+s5aIc8Vz/NbnWRsO4nvXcprDovO5+HvhoOczANIyXbnlYdFVZolpeK5jTIrlNc91rS0Qp4rInWSu5O0Qp4rnkfqJHcnaYU8n4rUSdagtEIeyecFm7RCHlGwSSvkEc8LNmmFPFfki+rKRGpJK+T5IpPc2dpw9egWc8MN/lUXKu0R+UlaIc8VuZtJvrJnfcKwlISByVzhM7vpxo3aE+dS85+J6p0ClIqyKCvgxgl4aTDMrD55RUUfL1yY74tM8vfb1gx5LNdgMTe1WKqvdPxyU99u1Yfb28Pv1MZ3XAfWdotVl5w+IX3aE7JNoUMO2NF30c3WhYF/nwwedM8wsybIg9zMn5/ndE53M8mQvLRHp7Q2tn1V3dkanqyL7xkaER5ut1hu3+y4demB+2LDrU2f7fxy2itvh4SGAVFRb/H9bWUhZAl5/IiWL0wxcI3WsTRBXk5OTnl5+dKlMx3P6W4mmSKv4KGqU0039QOaY/uaQVikHsSFgt4Ga0td7dUvSrLuMrC46QzxQ8YkT5zPbUpyf1s2GCIfuqXsUJITZhPLmFFUKmoKwKKF69CJYktbs5a7hTOyJ7gwM2+0nAtSK09NKct8ds+f/r7z/E6g+TCzJsibO3duQ0NDSUnJsmULHMzpbiYZknf39El7Pm2PSkuvt8fGJcbHGGwxBnucAUR3tH6yv3jRo3EhBtj8szVdu9Z40TRs6ZvcpsSlarn0L/a2yojniUf3OaExvuS9Bfzdv/mcC98CQ2cQhAkzC6ljPooMyXv+csq7r0n2U7thZk2QN2/ePOpDqq/fsmXLmjXLvJVJhuQNnpZZ9pm+57ARjWEJsZH6OH1nQlhYTIghwt5eVlQ8Z5IxMtRqamn/9bIpdsDEQQ8t5DaF+BDSdFMiT2SB8jwm961LwlTMRHF6WSlmJw4zS24xTy8CJFchaT7MrAnyGM8rLS197rn5DuZ0N5N84cN/H5w//lAl6D0kw5zYN8LWnhgRlhQVE6LXNd6sKy/7sHBiQ0So5dbPLXU/GsYu/WNkjz6Y7wNp5znzPFGbjL/FPOASUEYcHK6Rxy1CB06B6CJL9m9DRF4ghJk1QR7sN1RUVLjYznM9k1y99ZW7H7nvSHlNz3tzE1IHwneaGBkbHxnZ0d781Zcnfjr398LscLu586cL5s7YMRMXvIB0MvBO4JQ81IG4Q5iC5yF5ZidHW0QMptmfK8cH70d/1XSYWX3yIE8QHVf6tu5mks++v3rw1IzvDn97MWRg2sjM5P7J8TEJba2t1ee/++abC3HR9vTkK/0jGi9+a713wStpw+7V4cmT9TAckMf1MJDGk3CtGpY8gLojpoeBiHdfp9f8ggAIM6tPnuvn89zNJH/z36t63tXLbggFsU2V//ilXZ8KDHGd5l9B25UGy5Dh6VmWjib99U/sILFg2ero6GgxeZjzeei3y+ICu5Y5lbjzefxRrGBnEXutuBJ5vHAQ4MPMaAqa2T3cVUiaDjOrT57rcjeTXPXeKrOp+Z6J/Tsba60WS4cFvtVQu80corNcNoZ+ez0tIib51nfHpi54ZnxWVlR0lPw+ff4QWnu+G50odiqtkOeLTPKl46U/fnHYbG6306KLyOuYWvI2O7jTGVZb39SjT3Lh8lVJSb2jo6PU/gyCS1ohz0cym0zXjcbmpmZhlBYxNtg6jIyKiouD3ZIYCLTaOxtc0gp5JJ8XbNIKeUTBJq2QRzwv2KQV8lwRySR3J2mFPJJJDjZphTxXpHom2WMpFDULaqlPnuYzydLUGjV6cX6T6J65/BiGwqlgQp5cmiBPe5lkRKJBUmqgCZw4AjbiR9mVxkAJeXJpgjztZZJFknGjnO/A3ip8zqadIw+Cp7i72IsKI4six9zYKzalfHLdGyAb5GW9Dj14ec3W2tTzzzLzBOitnTVBnvYyyYhkIV5l8pBBeoqwg4XXuBrIbEU9TGFkeX44FZ+bght9J/WlbQuZpAxlvbe5pXBxec1LE+RpL5MMhLAJpukmJY9LfyAtQmnRWRoOgCuMLMsPK2RF0Y2KdsCIZgEDR5ogT3uZZETYyyCUPY8tGy8uwMiXp8UURpblhwl5fpImM8kiedLOE902g/M8bGFkWX7YqHi0RcgTjra4kreBIPXJ02QmGREmAKxIHtK3RYAQ2nkKlEjyw/iUssTzKgFY9yrdw9B+GXis1CdPi5lkNK2JljVmJSJPfqUP+wu2b1uFKbOsdLkkkKCscLQNUKlPnuvqnplkuZynlAl53hPJJAebtEKej0QyyZqVVsgj+bxgk1bIIwo2aYU84nnBJq2Q54o8yyRXV/+ztvY6doUpKcnp6YPVfltBKq2Q54tMMqNDh76YNm26fM4DBw6EhBgGDuwzatQQtd99MEor5LkidzPJjA4cqMzPnyZ3x4qKioKCgvLyQ4MG9R09+h6131zQSSvk+SKTzGjfvv+FnldcXDx69OgzZ87Ax6FDqeswDh8+zM1iz8/PxN19ihoePR2Y6TftSyvkuSJ3M8mMyso+nTGjwGazYdcJV3Lw4IFJkzKkd9xjIionwHrcGD9R16UV8ly/p7frmWRGpaWfTJ8+Y9euXaNGjTp79iz/ePHixREjRqSlpcED7oQJw/F3Ga3Cp0uIui6tkOeK3M0kM9q160hBwaNKngcXhJ6XlZVOyPOztEIemkP2ViaZUVFRxcyZj5WUlGRkZJw7d45/vHTp0vDhw6Hn7d+/b9KkUYQ8P0sr5LkidzPJjD766BAkz2q1YtdJe+S+yZN/Q8jzswKPPNczyYy2bdv/+OOzKioqoFPCDiz6CHEsKCjYu3dPdvZ9hDw/K/DIcz2TzGjLlj2FhbM//pi6tlKywmPHjuXn55eVlebkTCDk+VmBRJ67mWRGH3xQOnv2HEheR0cHbAeij9DzZsyYUVpakpeXScjzswKJPHczyYw2bdo9Z85cOB27TkhtScnu/PwH8OQR+UyBRJ67mWRGn39+6sKFyw5W26NHzEMPjZeeSSbysQKJPI8Fj86NjU1mcwf21fDwsPj4ONzoGZEPFRTkEWlQ/w+jt0+k06wYRwAAAABJRU5ErkJggg==;" vertex="1" parent="1">
          <mxGeometry x="294" y="-563.14" width="211" height="222" as="geometry" />
        </mxCell>
        <mxCell id="OesEzoIPEQb2hPXuOrIZ-124" value="&lt;font style=&quot;font-size: 12px;&quot;&gt;새창으로 보기&lt;/font&gt;" style="strokeWidth=1;shadow=0;dashed=0;align=center;html=1;shape=mxgraph.mockup.buttons.button;strokeColor=#666666;fontColor=#ffffff;mainText=;buttonStyle=round;fontSize=17;fontStyle=1;fillColor=#008cff;whiteSpace=wrap;" vertex="1" parent="1">
          <mxGeometry x="760" y="-562" width="84" height="31" as="geometry" />
        </mxCell>
        <mxCell id="OesEzoIPEQb2hPXuOrIZ-125" value="&lt;font style=&quot;font-size: 12px;&quot;&gt;&amp;nbsp;내용편집 하기&lt;/font&gt;" style="strokeWidth=1;shadow=0;dashed=0;align=center;html=1;shape=mxgraph.mockup.buttons.button;strokeColor=#666666;fontColor=#ffffff;mainText=;buttonStyle=round;fontSize=17;fontStyle=1;fillColor=#008cff;whiteSpace=wrap;" vertex="1" parent="1">
          <mxGeometry x="853" y="-562" width="84" height="31" as="geometry" />
        </mxCell>
        <mxCell id="OesEzoIPEQb2hPXuOrIZ-126" value="&lt;font style=&quot;font-size: 12px;&quot;&gt;신규제품 등록&lt;/font&gt;" style="strokeWidth=1;shadow=0;dashed=0;align=center;html=1;shape=mxgraph.mockup.buttons.button;strokeColor=#666666;fontColor=#ffffff;mainText=;buttonStyle=round;fontSize=17;fontStyle=1;fillColor=#008cff;whiteSpace=wrap;" vertex="1" parent="1">
          <mxGeometry x="943.8499999999999" y="-562" width="84" height="31" as="geometry" />
        </mxCell>
        <mxCell id="OesEzoIPEQb2hPXuOrIZ-127" value="&lt;font style=&quot;font-size: 13px;&quot;&gt;제품(서비스) 이름&amp;nbsp;&lt;/font&gt;" style="html=1;shadow=0;dashed=0;shape=mxgraph.bootstrap.rrect;rSize=5;strokeColor=#343A40;strokeWidth=1;fillColor=none;fontColor=#343A40;whiteSpace=wrap;align=center;verticalAlign=middle;spacingLeft=0;fontStyle=0;fontSize=16;spacing=5;" vertex="1" parent="1">
          <mxGeometry x="527.07" y="-511.14" width="151.93" height="21.14" as="geometry" />
        </mxCell>
        <mxCell id="OesEzoIPEQb2hPXuOrIZ-128" value="&lt;font style=&quot;font-size: 13px;&quot;&gt;제품(서비스) 책임자&amp;nbsp;&lt;/font&gt;" style="html=1;shadow=0;dashed=0;shape=mxgraph.bootstrap.rrect;rSize=5;strokeColor=#343A40;strokeWidth=1;fillColor=none;fontColor=#343A40;whiteSpace=wrap;align=center;verticalAlign=middle;spacingLeft=0;fontStyle=0;fontSize=16;spacing=5;" vertex="1" parent="1">
          <mxGeometry x="527.07" y="-481.14" width="151.93" height="21.14" as="geometry" />
        </mxCell>
        <mxCell id="OesEzoIPEQb2hPXuOrIZ-129" value="&lt;font style=&quot;font-size: 13px;&quot;&gt;제품(서비스) 리뷰어&lt;/font&gt;" style="html=1;shadow=0;dashed=0;shape=mxgraph.bootstrap.rrect;rSize=5;strokeColor=#343A40;strokeWidth=1;fillColor=none;fontColor=#343A40;whiteSpace=wrap;align=center;verticalAlign=middle;spacingLeft=0;fontStyle=0;fontSize=16;spacing=5;" vertex="1" parent="1">
          <mxGeometry x="527.07" y="-450" width="151.93" height="21.14" as="geometry" />
        </mxCell>
        <mxCell id="OesEzoIPEQb2hPXuOrIZ-130" value="" style="verticalLabelPosition=bottom;shadow=0;dashed=0;align=center;html=1;verticalAlign=top;strokeWidth=1;shape=mxgraph.mockup.containers.userMale;strokeColor=#666666;strokeColor2=#008cff;fontSize=13;" vertex="1" parent="1">
          <mxGeometry x="693" y="-481" width="26" height="23" as="geometry" />
        </mxCell>
        <mxCell id="OesEzoIPEQb2hPXuOrIZ-131" value="&lt;font face=&quot;menlo, monospace&quot; color=&quot;#202124&quot;&gt;&lt;span style=&quot;font-size: 12px; background-color: rgb(255, 255, 255);&quot;&gt;함수원(Willy)&lt;/span&gt;&lt;/font&gt;" style="text;html=1;points=[];align=left;verticalAlign=top;spacingTop=-4;fontSize=15;fontFamily=Verdana" vertex="1" parent="1">
          <mxGeometry x="724" y="-481.5" width="170" height="30" as="geometry" />
        </mxCell>
        <mxCell id="OesEzoIPEQb2hPXuOrIZ-132" value="" style="verticalLabelPosition=bottom;shadow=0;dashed=0;align=center;html=1;verticalAlign=top;strokeWidth=1;shape=mxgraph.mockup.containers.userMale;strokeColor=#666666;strokeColor2=#008cff;fontSize=13;" vertex="1" parent="1">
          <mxGeometry x="693" y="-453" width="26" height="23" as="geometry" />
        </mxCell>
        <mxCell id="OesEzoIPEQb2hPXuOrIZ-133" value="&lt;font face=&quot;menlo, monospace&quot; color=&quot;#202124&quot;&gt;&lt;span style=&quot;font-size: 12px; background-color: rgb(255, 255, 255);&quot;&gt;이동민(Spear)&lt;/span&gt;&lt;/font&gt;" style="text;html=1;points=[];align=left;verticalAlign=top;spacingTop=-4;fontSize=15;fontFamily=Verdana" vertex="1" parent="1">
          <mxGeometry x="724" y="-453.5" width="170" height="30" as="geometry" />
        </mxCell>
        <mxCell id="OesEzoIPEQb2hPXuOrIZ-134" value="" style="verticalLabelPosition=bottom;shadow=0;dashed=0;align=center;html=1;verticalAlign=top;strokeWidth=1;shape=mxgraph.mockup.containers.userFemale;strokeColor=#666666;strokeColor2=#008cff;fontSize=13;" vertex="1" parent="1">
          <mxGeometry x="810" y="-453" width="25" height="24" as="geometry" />
        </mxCell>
        <mxCell id="OesEzoIPEQb2hPXuOrIZ-135" value="&lt;font face=&quot;menlo, monospace&quot; color=&quot;#202124&quot;&gt;&lt;span style=&quot;font-size: 12px; background-color: rgb(255, 255, 255);&quot;&gt;방현지(Flower)&lt;/span&gt;&lt;/font&gt;" style="text;html=1;points=[];align=left;verticalAlign=top;spacingTop=-4;fontSize=15;fontFamily=Verdana" vertex="1" parent="1">
          <mxGeometry x="838" y="-453.5" width="170" height="30" as="geometry" />
        </mxCell>
        <mxCell id="OesEzoIPEQb2hPXuOrIZ-137" value="" style="html=1;shadow=0;dashed=0;align=center;verticalAlign=middle;shape=mxgraph.arrows2.jumpInArrow;dy=15;dx=38;arrowHead=52.86;fillColor=#dae8fc;strokeColor=#6c8ebf;rotation=-180;" vertex="1" parent="1">
          <mxGeometry x="339" y="-341.14" width="100" height="100" as="geometry" />
        </mxCell>
        <mxCell id="OesEzoIPEQb2hPXuOrIZ-138" value="&lt;font face=&quot;menlo, monospace&quot; color=&quot;#202124&quot;&gt;&lt;span style=&quot;font-size: 12px; background-color: rgb(255, 255, 255);&quot;&gt;V3 Enterprise&lt;/span&gt;&lt;/font&gt;" style="text;html=1;points=[];align=left;verticalAlign=top;spacingTop=-4;fontSize=15;fontFamily=Verdana" vertex="1" parent="1">
          <mxGeometry x="689" y="-511.5" width="170" height="30" as="geometry" />
        </mxCell>
        <mxCell id="OesEzoIPEQb2hPXuOrIZ-139" value="&lt;font style=&quot;font-size: 13px;&quot;&gt;-jsTree 클릭시&lt;br&gt;-우측 제품(서비스) 이름&lt;br&gt;-에 데이터 바인딩 필요&lt;br&gt;-동시에 스크립트로&amp;nbsp;&lt;br&gt;-AJAX 호출하여&amp;nbsp;&lt;br&gt;-책임자와 기본 리뷰어&lt;br&gt;-데이터 바인딩 필요&lt;br&gt;&lt;/font&gt;" style="strokeWidth=1;shadow=0;dashed=1;align=center;html=1;shape=mxgraph.mockup.text.bulletedList;textColor=#666666;mainText=,,,,;textSize=17;bulletStyle=none;strokeColor=default;fillColor=none;align=left;verticalAlign=top;fontSize=17;fontColor=#666666;" vertex="1" parent="1">
          <mxGeometry x="186" y="-319" width="150" height="149" as="geometry" />
        </mxCell>
      </root>
    </mxGraphModel>
  </diagram>
</mxfile>
